<svg xmlns="http://www.w3.org/2000/svg" viewBox="0 0 32 32">
  <rect width="32" height="32" rx="8" fill="#f59e0b"/>
  <path fill="#0a0a0f" d="M24.6 10c-.27-.78-.89-1.3-1.6-1.3H9c-.71 0-1.33.52-1.6 1.3L5 18v10c0 .55.45 1 1 1h1.5c.55 0 1-.45 1-1v-1.5h15V28c0 .55.45 1 1 1H26c.55 0 1-.45 1-1V18l-2.4-8zm-15.1 10c-.97 0-1.75-.78-1.75-1.75S8.53 16.5 9.5 16.5s1.75.78 1.75 1.75S10.47 20 9.5 20zm13 0c-.97 0-1.75-.78-1.75-1.75s.78-1.75 1.75-1.75 1.75.78 1.75 1.75S23.47 20 22.5 20zM7 15l1.9-5.5h14.2L25 15H7z"/>
</svg>
